<?xml version="1.0" encoding="utf-8"?>
<!-- Generator: Adobe Illustrator 19.2.1, SVG Export Plug-In . SVG Version: 6.00 Build 0)  -->
<svg version="1.1" id="Capa_1" xmlns="http://www.w3.org/2000/svg" xmlns:xlink="http://www.w3.org/1999/xlink" x="0px" y="0px"
	 viewBox="0 0 88.3 85.2" style="enable-background:new 0 0 88.3 85.2;" xml:space="preserve">
<style type="text/css">
	.st0{fill:#F9B24F;}
	.st1{opacity:0.19;fill:#FFFFFF;}
	.st2{fill:#F7B334;}
	.st3{fill:#FFFFFF;}
	.st4{fill:none;stroke:#FFFFFF;stroke-miterlimit:10;}
	.st5{fill:none;stroke:#FFFFFF;stroke-width:4;stroke-miterlimit:10;}
	.st6{fill:none;}
	.st7{opacity:0.17;fill:#FFFFFF;}
	.st8{fill:#333333;}
	.st9{fill:none;stroke:#FFFFFF;stroke-width:2;stroke-miterlimit:10;}
	.st10{fill:none;stroke:#7A0A0A;stroke-width:3;stroke-miterlimit:10;}
	.st11{opacity:0.22;fill:#FFFFFF;}
	.st12{fill:#7A0A0A;}
	.st13{fill-rule:evenodd;clip-rule:evenodd;fill:#333333;}
	.st14{fill:none;stroke:#333333;stroke-miterlimit:10;}
	.st15{opacity:0.44;}
	.st16{fill:#6D6F71;}
	.st17{fill:#F1F2F2;}
	.st18{fill:#808284;}
	.st19{fill:#802528;}
	.st20{fill:#3E3935;}
	.st21{fill:#231F20;}
	.st22{opacity:0.3;}
	.st23{fill-rule:evenodd;clip-rule:evenodd;fill:#FFFFFF;}
	.st24{fill:none;stroke:#660000;stroke-width:2;stroke-miterlimit:10;}
	.st25{fill:#660000;}
	.st26{fill:none;stroke:#7A0A0A;stroke-width:5;stroke-miterlimit:10;}
	.st27{clip-path:url(#SVGID_2_);}
	.st28{clip-path:url(#SVGID_4_);}
	.st29{fill:none;stroke:#660000;stroke-width:4;stroke-miterlimit:10;}
	.st30{fill:none;stroke:#7A0A0A;stroke-width:8;stroke-miterlimit:10;}
	.st31{fill:none;stroke:#FFFFFF;stroke-width:5;stroke-miterlimit:10;}
</style>
<g>
	<g>
		<path class="st12" d="M55.1,40.2c-0.5,0-0.9,0-1.4,0c-0.7-0.3-1.5-0.6-2.2-1c-4.2-2.7-7.1-6.4-8.7-11.2c-0.9-2.9-1.2-5.9-0.5-9
			c0.6-2.6,2.1-4.5,4.6-5.4c3-1.1,5.9-0.9,8.7,0.7c0.8,0.4,1.6,0.8,2.5,0.9c1.4,0.2,2.6-0.2,3.7-0.9c0.4-0.2,0.9-0.5,1.4-0.7
			c1.8-0.7,3.6-0.8,5.4-0.6c2.4,0.3,4.3,1.4,5.6,3.5c0.9,1.5,1.2,3.1,1.3,4.8c0.1,2.4-0.2,4.8-1,7.1c-2,5.3-5.3,9.4-10.7,11.6
			c-0.5,0-0.9,0-1.4,0c-0.1,0-0.2-0.1-0.2-0.1c-0.8-0.1-1.6-0.3-2.3-0.7c-0.8-0.4-1.5-0.4-2.3,0c-0.6,0.3-1.2,0.4-1.9,0.6
			C55.6,40.1,55.3,40.2,55.1,40.2z"/>
		<path class="st13" d="M65.7,6.3c-0.2,2.1-0.9,4-2.5,5.5c-1.5,1.4-3.3,1.8-5.4,1.7c0.1-1.7,0.5-3.3,1.6-4.7
			C60.9,6.9,63.6,6.2,65.7,6.3z"/>
		<path class="st13" d="M57.5,11.2c-2.2,1-4.9,0.4-6.2-2.7c1.2-0.4,2.5-0.5,3.7,0C56.3,9,57,10,57.5,11.2z"/>
		<g>
			<path class="st8" d="M76,69.2c-17.8,0-35.6,0-53.4,0c-8.4,0-13.6-8.4-10.8-16c1.9-5.3,7.3-7.2,12.4-7.2c11,0,22,0,33,0
				c5.7,0,11.5,0,17.2,0c3.8,0,3.8-5.9,0-5.9c-8.8,0-17.7,0-26.5,0C42,40,36,40,30,40c-3,0-6.1-0.2-9.1,0.1
				C11.4,41,4.2,49.6,5.1,59.2c0.8,8.9,8.5,15.9,17.5,15.9c9.1,0,18.2,0,27.3,0c8.7,0,17.4,0,26.1,0C79.8,75.1,79.8,69.2,76,69.2
				L76,69.2z"/>
		</g>
		<g>
			<g>
				<path class="st13" d="M70.8,55.7c0.1-2.6,0.8-5,1.9-7.3h-50c-5,0-9.1,4.1-9.1,9.1s4.1,9.1,9.1,9.1h51
					C71.6,63.3,70.6,59.5,70.8,55.7z"/>
			</g>
		</g>
	</g>
</g>
</svg>
